<svg xmlns="http://www.w3.org/2000/svg" xmlns:xlink="http://www.w3.org/1999/xlink" id="processonSvg1000" viewBox="224.99999999999983 24.0 555.666666666667 1108.666666666665" width="555.666666666667" height="1108.666666666665"><defs id="ProcessOnDefs1001"><marker id="ProcessOnMarker1015" markerUnits="userSpaceOnUse" orient="auto" markerWidth="16.23606797749979" markerHeight="10.550836550532098" viewBox="-1.0 -1.3763819204711736 16.23606797749979 10.550836550532098" refX="-1.0" refY="3.8990363547948754"><path id="ProcessOnPath1016" d="M12.0 3.8990363547948754L0.0 7.798072709589751V0.0Z" stroke="#323232" stroke-width="2.0" fill="#323232" transform="matrix(1.0,0.0,0.0,1.0,0.0,0.0)"/></marker><marker id="ProcessOnMarker1024" markerUnits="userSpaceOnUse" orient="auto" markerWidth="16.23606797749979" markerHeight="10.550836550532098" viewBox="-1.0 -1.3763819204711736 16.23606797749979 10.550836550532098" refX="-1.0" refY="3.8990363547948754"><path id="ProcessOnPath1025" d="M12.0 3.8990363547948754L0.0 7.798072709589751V0.0Z" stroke="#323232" stroke-width="2.0" fill="#323232" transform="matrix(1.0,0.0,0.0,1.0,0.0,0.0)"/></marker><marker id="ProcessOnMarker1032" markerUnits="userSpaceOnUse" orient="auto" markerWidth="16.23606797749979" markerHeight="10.550836550532098" viewBox="-1.0 -1.3763819204711736 16.23606797749979 10.550836550532098" refX="-1.0" refY="3.8990363547948754"><path id="ProcessOnPath1033" d="M12.0 3.8990363547948754L0.0 7.798072709589751V0.0Z" stroke="#323232" stroke-width="2.0" fill="#323232" transform="matrix(1.0,0.0,0.0,1.0,0.0,0.0)"/></marker><marker id="ProcessOnMarker1043" markerUnits="userSpaceOnUse" orient="auto" markerWidth="16.23606797749979" markerHeight="10.550836550532098" viewBox="-1.0 -1.3763819204711736 16.23606797749979 10.550836550532098" refX="-1.0" refY="3.8990363547948754"><path id="ProcessOnPath1044" d="M12.0 3.8990363547948754L0.0 7.798072709589751V0.0Z" stroke="#323232" stroke-width="2.0" fill="#323232" transform="matrix(1.0,0.0,0.0,1.0,0.0,0.0)"/></marker><marker id="ProcessOnMarker1050" markerUnits="userSpaceOnUse" orient="auto" markerWidth="16.23606797749979" markerHeight="10.550836550532098" viewBox="-1.0 -1.3763819204711736 16.23606797749979 10.550836550532098" refX="-1.0" refY="3.8990363547948754"><path id="ProcessOnPath1051" d="M12.0 3.8990363547948754L0.0 7.798072709589751V0.0Z" stroke="#323232" stroke-width="2.0" fill="#323232" transform="matrix(1.0,0.0,0.0,1.0,0.0,0.0)"/></marker><marker id="ProcessOnMarker1064" markerUnits="userSpaceOnUse" orient="auto" markerWidth="16.23606797749979" markerHeight="10.550836550532098" viewBox="-1.0 -1.3763819204711736 16.23606797749979 10.550836550532098" refX="-1.0" refY="3.8990363547948754"><path id="ProcessOnPath1065" d="M12.0 3.8990363547948754L0.0 7.798072709589751V0.0Z" stroke="#323232" stroke-width="2.0" fill="#323232" transform="matrix(1.0,0.0,0.0,1.0,0.0,0.0)"/></marker><marker id="ProcessOnMarker1076" markerUnits="userSpaceOnUse" orient="auto" markerWidth="16.23606797749979" markerHeight="10.550836550532098" viewBox="-1.0 -1.3763819204711736 16.23606797749979 10.550836550532098" refX="-1.0" refY="3.8990363547948754"><path id="ProcessOnPath1077" d="M12.0 3.8990363547948754L0.0 7.798072709589751V0.0Z" stroke="#323232" stroke-width="2.0" fill="#323232" transform="matrix(1.0,0.0,0.0,1.0,0.0,0.0)"/></marker><marker id="ProcessOnMarker1085" markerUnits="userSpaceOnUse" orient="auto" markerWidth="16.23606797749979" markerHeight="10.550836550532098" viewBox="-1.0 -1.3763819204711736 16.23606797749979 10.550836550532098" refX="-1.0" refY="3.8990363547948754"><path id="ProcessOnPath1086" d="M12.0 3.8990363547948754L0.0 7.798072709589751V0.0Z" stroke="#323232" stroke-width="2.0" fill="#323232" transform="matrix(1.0,0.0,0.0,1.0,0.0,0.0)"/></marker><marker id="ProcessOnMarker1089" markerUnits="userSpaceOnUse" orient="auto" markerWidth="16.23606797749979" markerHeight="10.550836550532098" viewBox="-1.0 -1.3763819204711736 16.23606797749979 10.550836550532098" refX="-1.0" refY="3.8990363547948754"><path id="ProcessOnPath1090" d="M12.0 3.8990363547948754L0.0 7.798072709589751V0.0Z" stroke="#323232" stroke-width="2.0" fill="#323232" transform="matrix(1.0,0.0,0.0,1.0,0.0,0.0)"/></marker><marker id="ProcessOnMarker1107" markerUnits="userSpaceOnUse" orient="auto" markerWidth="16.23606797749979" markerHeight="10.550836550532098" viewBox="-1.0 -1.3763819204711736 16.23606797749979 10.550836550532098" refX="-1.0" refY="3.8990363547948754"><path id="ProcessOnPath1108" d="M12.0 3.8990363547948754L0.0 7.798072709589751V0.0Z" stroke="#323232" stroke-width="2.0" fill="#323232" transform="matrix(1.0,0.0,0.0,1.0,0.0,0.0)"/></marker><marker id="ProcessOnMarker1111" markerUnits="userSpaceOnUse" orient="auto" markerWidth="16.23606797749979" markerHeight="10.550836550532098" viewBox="-1.0 -1.3763819204711736 16.23606797749979 10.550836550532098" refX="-1.0" refY="3.8990363547948754"><path id="ProcessOnPath1112" d="M12.0 3.8990363547948754L0.0 7.798072709589751V0.0Z" stroke="#323232" stroke-width="2.0" fill="#323232" transform="matrix(1.0,0.0,0.0,1.0,0.0,0.0)"/></marker><marker id="ProcessOnMarker1115" markerUnits="userSpaceOnUse" orient="auto" markerWidth="16.23606797749979" markerHeight="10.550836550532098" viewBox="-1.0 -1.3763819204711736 16.23606797749979 10.550836550532098" refX="-1.0" refY="3.8990363547948754"><path id="ProcessOnPath1116" d="M12.0 3.8990363547948754L0.0 7.798072709589751V0.0Z" stroke="#323232" stroke-width="2.0" fill="#323232" transform="matrix(1.0,0.0,0.0,1.0,0.0,0.0)"/></marker><marker id="ProcessOnMarker1126" markerUnits="userSpaceOnUse" orient="auto" markerWidth="16.23606797749979" markerHeight="10.550836550532098" viewBox="-1.0 -1.3763819204711736 16.23606797749979 10.550836550532098" refX="-1.0" refY="3.8990363547948754"><path id="ProcessOnPath1127" d="M12.0 3.8990363547948754L0.0 7.798072709589751V0.0Z" stroke="#323232" stroke-width="2.0" fill="#323232" transform="matrix(1.0,0.0,0.0,1.0,0.0,0.0)"/></marker><marker id="ProcessOnMarker1134" markerUnits="userSpaceOnUse" orient="auto" markerWidth="16.23606797749979" markerHeight="10.550836550532098" viewBox="-1.0 -1.3763819204711736 16.23606797749979 10.550836550532098" refX="-1.0" refY="3.8990363547948754"><path id="ProcessOnPath1135" d="M12.0 3.8990363547948754L0.0 7.798072709589751V0.0Z" stroke="#323232" stroke-width="2.0" fill="#323232" transform="matrix(1.0,0.0,0.0,1.0,0.0,0.0)"/></marker><marker id="ProcessOnMarker1143" markerUnits="userSpaceOnUse" orient="auto" markerWidth="16.23606797749979" markerHeight="10.550836550532098" viewBox="-1.0 -1.3763819204711736 16.23606797749979 10.550836550532098" refX="-1.0" refY="3.8990363547948754"><path id="ProcessOnPath1144" d="M12.0 3.8990363547948754L0.0 7.798072709589751V0.0Z" stroke="#323232" stroke-width="2.0" fill="#323232" transform="matrix(1.0,0.0,0.0,1.0,0.0,0.0)"/></marker><marker id="ProcessOnMarker1151" markerUnits="userSpaceOnUse" orient="auto" markerWidth="16.23606797749979" markerHeight="10.550836550532098" viewBox="-1.0 -1.3763819204711736 16.23606797749979 10.550836550532098" refX="-1.0" refY="3.8990363547948754"><path id="ProcessOnPath1152" d="M12.0 3.8990363547948754L0.0 7.798072709589751V0.0Z" stroke="#323232" stroke-width="2.0" fill="#323232" transform="matrix(1.0,0.0,0.0,1.0,0.0,0.0)"/></marker><marker id="ProcessOnMarker1155" markerUnits="userSpaceOnUse" orient="auto" markerWidth="16.23606797749979" markerHeight="10.550836550532098" viewBox="-1.0 -1.3763819204711736 16.23606797749979 10.550836550532098" refX="-1.0" refY="3.8990363547948754"><path id="ProcessOnPath1156" d="M12.0 3.8990363547948754L0.0 7.798072709589751V0.0Z" stroke="#323232" stroke-width="2.0" fill="#323232" transform="matrix(1.0,0.0,0.0,1.0,0.0,0.0)"/></marker><marker id="ProcessOnMarker1163" markerUnits="userSpaceOnUse" orient="auto" markerWidth="16.23606797749979" markerHeight="10.550836550532098" viewBox="-1.0 -1.3763819204711736 16.23606797749979 10.550836550532098" refX="-1.0" refY="3.8990363547948754"><path id="ProcessOnPath1164" d="M12.0 3.8990363547948754L0.0 7.798072709589751V0.0Z" stroke="#323232" stroke-width="2.0" fill="#323232" transform="matrix(1.0,0.0,0.0,1.0,0.0,0.0)"/></marker><marker id="ProcessOnMarker1171" markerUnits="userSpaceOnUse" orient="auto" markerWidth="16.23606797749979" markerHeight="10.550836550532098" viewBox="-1.0 -1.3763819204711736 16.23606797749979 10.550836550532098" refX="-1.0" refY="3.8990363547948754"><path id="ProcessOnPath1172" d="M12.0 3.8990363547948754L0.0 7.798072709589751V0.0Z" stroke="#323232" stroke-width="2.0" fill="#323232" transform="matrix(1.0,0.0,0.0,1.0,0.0,0.0)"/></marker><marker id="ProcessOnMarker1180" markerUnits="userSpaceOnUse" orient="auto" markerWidth="16.23606797749979" markerHeight="10.550836550532098" viewBox="-1.0 -1.3763819204711736 16.23606797749979 10.550836550532098" refX="-1.0" refY="3.8990363547948754"><path id="ProcessOnPath1181" d="M12.0 3.8990363547948754L0.0 7.798072709589751V0.0Z" stroke="#323232" stroke-width="2.0" fill="#323232" transform="matrix(1.0,0.0,0.0,1.0,0.0,0.0)"/></marker><marker id="ProcessOnMarker1188" markerUnits="userSpaceOnUse" orient="auto" markerWidth="16.23606797749979" markerHeight="10.550836550532098" viewBox="-1.0 -1.3763819204711736 16.23606797749979 10.550836550532098" refX="-1.0" refY="3.8990363547948754"><path id="ProcessOnPath1189" d="M12.0 3.8990363547948754L0.0 7.798072709589751V0.0Z" stroke="#323232" stroke-width="2.0" fill="#323232" transform="matrix(1.0,0.0,0.0,1.0,0.0,0.0)"/></marker></defs><g id="ProcessOnG1002"><path id="ProcessOnPath1003" d="M224.99999999999983 24.0H780.6666666666667V1132.666666666665H224.99999999999977V24.0Z" fill="none"/><g id="ProcessOnG1004"><g id="ProcessOnG1005" transform="matrix(1.0,0.0,0.0,1.0,469.6971593168082,44.0)" opacity="1.0"><path id="ProcessOnPath1006" d="M12.050078247261347 0.0L164.90721712640413 0.0C180.97398812275262 0.0 180.97398812275262 36.15023474178404 164.90721712640413 36.15023474178404L12.050078247261347 36.15023474178404C-4.016692749087116 36.15023474178404 -4.016692749087116 0.0 12.050078247261347 0.0Z" stroke="#323232" stroke-width="2.0" stroke-dasharray="none" opacity="1.0" fill="#ffffff"/><g id="ProcessOnG1007" transform="matrix(1.0,0.0,0.0,1.0,10.0,9.95011737089202)"><text id="ProcessOnText1008" fill="#000000" font-size="13" x="77.47864768683274" y="13.325" font-family="微软雅黑" font-weight="normal" font-style="normal" text-decoration="none" family="微软雅黑" text-anchor="middle" size="13">Start</text></g></g><g id="ProcessOnG1009" transform="matrix(1.0,0.0,0.0,1.0,506.1295436584453,149.70892018779355)" opacity="1.0"><path id="ProcessOnPath1010" d="M0.0 0.0L104.09252669039147 0.0L104.09252669039147 34.08450704225352L0.0 34.08450704225352Z" stroke="#323232" stroke-width="2.0" stroke-dasharray="none" opacity="1.0" fill="#ffffff"/><g id="ProcessOnG1011" transform="matrix(1.0,0.0,0.0,1.0,10.0,8.91725352112676)"><text id="ProcessOnText1012" fill="#000000" font-size="13" x="41.04626334519573" y="13.325" font-family="微软雅黑" font-weight="normal" font-style="normal" text-decoration="none" family="微软雅黑" text-anchor="middle" size="13">raw material</text></g></g><g id="ProcessOnG1013"><path id="ProcessOnPath1014" d="M558.175807003641 80.15023474178403L558.175807003641 88.76056338028167L558.175807003641 88.76056338028167L558.175807003641 89.76056338028167" stroke="#323232" stroke-width="2.0" stroke-dasharray="none" fill="none" marker-end="url(#ProcessOnMarker1015)"/></g><g id="ProcessOnG1017" transform="matrix(1.0,0.0,0.0,1.0,490.4506068257051,200.4084507042257)" opacity="1.0"><path id="ProcessOnPath1018" d="M0.0 51.12676056338028L67.72520017793595 0.0L135.4504003558719 51.12676056338028L67.72520017793595 102.25352112676056L0.0 51.12676056338028Z" stroke="#323232" stroke-width="2.0" stroke-dasharray="none" opacity="1.0" fill="#ffffff"/><g id="ProcessOnG1019" transform="matrix(1.0,0.0,0.0,1.0,10.0,34.87676056338028)"><text id="ProcessOnText1020" fill="#000000" font-size="13" x="56.725200177935946" y="13.325" font-family="微软雅黑" font-weight="normal" font-style="normal" text-decoration="none" family="微软雅黑" text-anchor="middle" size="13">Does the yarn </text><text id="ProcessOnText1021" fill="#000000" font-size="13" x="56.725200177935946" y="29.575" font-family="微软雅黑" font-weight="normal" font-style="normal" text-decoration="none" family="微软雅黑" text-anchor="middle" size="13">color match？</text></g></g><g id="ProcessOnG1022"><path id="ProcessOnPath1023" d="M558.175807003641 183.79342723004706L558.175807003641 192.10093896713636L558.175807003641 192.10093896713636L558.175807003641 193.10093896713636" stroke="#323232" stroke-width="2.0" stroke-dasharray="none" fill="none" marker-end="url(#ProcessOnMarker1024)"/></g><g id="ProcessOnG1026" transform="matrix(1.0,0.0,0.0,1.0,338.13285883748523,234.75117370892053)" opacity="1.0"><path id="ProcessOnPath1027" d="M0.0 0.0L92.64234875444839 0.0L92.64234875444839 33.568075117370896L0.0 33.568075117370896Z" stroke="#323232" stroke-width="2.0" stroke-dasharray="none" opacity="1.0" fill="#ffffff"/><g id="ProcessOnG1028" transform="matrix(1.0,0.0,0.0,1.0,10.0,8.659037558685448)"><text id="ProcessOnText1029" fill="#000000" font-size="13" x="35.321174377224196" y="13.325" font-family="微软雅黑" font-weight="normal" font-style="normal" text-decoration="none" family="微软雅黑" text-anchor="middle" size="13">Dyeing</text></g></g><g id="ProcessOnG1030"><path id="ProcessOnPath1031" d="M490.4506068257051 251.53521126760506L460.61290720881937 251.53521126760506L460.61290720881937 251.5352112676058L446.0112755694334 251.5352112676058" stroke="#323232" stroke-width="2.0" stroke-dasharray="none" fill="none" marker-end="url(#ProcessOnMarker1032)"/><g id="ProcessOnG1034" transform="matrix(1.0,0.0,0.0,1.0,468.2309411975689,243.41021126760506)"><path id="ProcessOnPath1035" d="M0 0H19.0V16.25H0Z" fill="#fff" transform="matrix(1.0,0.0,0.0,1.0,-9.5,0.0)"/><text id="ProcessOnText1036" fill="#000000" font-size="13" x="0.0" y="13.325" font-family="微软雅黑" font-weight="normal" font-style="normal" text-decoration="none" family="微软雅黑" text-anchor="middle" size="13">No</text></g></g><g id="ProcessOnG1037" transform="matrix(1.0,0.0,0.0,1.0,511.8546326264168,350.7699530516431)" opacity="1.0"><path id="ProcessOnPath1038" d="M0.0 0.0L92.64234875444839 0.0L92.64234875444839 33.568075117370896L0.0 33.568075117370896Z" stroke="#323232" stroke-width="2.0" stroke-dasharray="none" opacity="1.0" fill="#ffffff"/><g id="ProcessOnG1039" transform="matrix(1.0,0.0,0.0,1.0,10.0,8.659037558685448)"><text id="ProcessOnText1040" fill="#000000" font-size="13" x="35.321174377224196" y="13.325" font-family="微软雅黑" font-weight="normal" font-style="normal" text-decoration="none" family="微软雅黑" text-anchor="middle" size="13">Knitting</text></g></g><g id="ProcessOnG1041"><path id="ProcessOnPath1042" d="M558.175807003641 302.6619718309853L558.175807003641 326.7159624413142L558.175807003641 326.7159624413142L558.175807003641 335.5338850741433" stroke="#323232" stroke-width="2.0" stroke-dasharray="none" fill="none" marker-end="url(#ProcessOnMarker1043)"/><g id="ProcessOnG1045" transform="matrix(1.0,0.0,0.0,1.0,558.175807003641,310.9729284525643)"><path id="ProcessOnPath1046" d="M0 0H21.0V16.25H0Z" fill="#fff" transform="matrix(1.0,0.0,0.0,1.0,-10.5,0.0)"/><text id="ProcessOnText1047" fill="#000000" font-size="13" x="0.0" y="13.325" font-family="微软雅黑" font-weight="normal" font-style="normal" text-decoration="none" family="微软雅黑" text-anchor="middle" size="13">Yes</text></g></g><g id="ProcessOnG1048"><path id="ProcessOnPath1049" d="M384.4540332147094 268.31924882629124L384.4540332147094 367.5539906103285L496.618564648917 367.5539906103285" stroke="#323232" stroke-width="2.0" stroke-dasharray="none" fill="none" marker-end="url(#ProcessOnMarker1050)"/></g><g id="ProcessOnG1052" transform="matrix(1.0,0.0,0.0,1.0,496.631100597947,521.7276995305169)" opacity="1.0"><path id="ProcessOnPath1053" d="M0.0 46.99530516431925L61.54470640569395 0.0L123.0894128113879 46.99530516431925L61.54470640569395 93.9906103286385Z" stroke="#323232" stroke-width="2.0" stroke-dasharray="none" opacity="1.0" fill="#ffffff"/><g id="ProcessOnG1054" transform="matrix(1.0,0.0,0.0,1.0,10.0,31.215258215962443)"><text id="ProcessOnText1055" fill="#000000" font-size="13" x="50.54470640569395" y="13.325" font-family="微软雅黑" font-weight="normal" font-style="normal" text-decoration="none" family="微软雅黑" text-anchor="middle" size="13">need other proc</text><text id="ProcessOnText1056" fill="#000000" font-size="13" x="50.54470640569395" y="29.575" font-family="微软雅黑" font-weight="normal" font-style="normal" text-decoration="none" family="微软雅黑" text-anchor="middle" size="13">essing?</text></g></g><g id="ProcessOnG1057" transform="matrix(1.0,0.0,0.0,1.0,340.91063661526294,548.3239436619723)" opacity="1.0"><path id="ProcessOnPath1058" d="M0.0 0.0L92.64234875444839 0.0L92.64234875444839 40.7981220657277L0.0 40.7981220657277Z" stroke="#323232" stroke-width="2.0" stroke-dasharray="none" opacity="1.0" fill="#ffffff"/><g id="ProcessOnG1059" transform="matrix(1.0,0.0,0.0,1.0,10.0,4.149061032863852)"><text id="ProcessOnText1060" fill="#000000" font-size="13" x="35.321174377224196" y="13.325" font-family="微软雅黑" font-weight="normal" font-style="normal" text-decoration="none" family="微软雅黑" text-anchor="middle" size="13">Other </text><text id="ProcessOnText1061" fill="#000000" font-size="13" x="35.321174377224196" y="29.575" font-family="微软雅黑" font-weight="normal" font-style="normal" text-decoration="none" family="微软雅黑" text-anchor="middle" size="13">processes</text></g></g><g id="ProcessOnG1062"><path id="ProcessOnPath1063" d="M496.631100597947 568.7230046948362L465.0920429838292 568.7230046948362L465.0920429838292 568.7230046948362L448.7890533472111 568.7230046948362" stroke="#323232" stroke-width="2.0" stroke-dasharray="none" fill="none" marker-end="url(#ProcessOnMarker1064)"/><g id="ProcessOnG1066" transform="matrix(1.0,0.0,0.0,1.0,472.71007697257903,560.5980046948362)"><path id="ProcessOnPath1067" d="M0 0H21.0V16.25H0Z" fill="#fff" transform="matrix(1.0,0.0,0.0,1.0,-10.5,0.0)"/><text id="ProcessOnText1068" fill="#000000" font-size="13" x="0.0" y="13.325" font-family="微软雅黑" font-weight="normal" font-style="normal" text-decoration="none" family="微软雅黑" text-anchor="middle" size="13">Yes</text></g></g><g id="ProcessOnG1069" transform="matrix(1.0,0.0,0.0,1.0,511.8546326264168,404.2300469483567)" opacity="1.0"><path id="ProcessOnPath1070" d="M0.0 0.0L92.64234875444839 0.0L92.64234875444839 42.347417840375584L0.0 42.347417840375584Z" stroke="#323232" stroke-width="2.0" stroke-dasharray="none" opacity="1.0" fill="#ffffff"/><g id="ProcessOnG1071" transform="matrix(1.0,0.0,0.0,1.0,10.0,4.923708920187792)"><text id="ProcessOnText1072" fill="#000000" font-size="13" x="35.321174377224196" y="13.325" font-family="微软雅黑" font-weight="normal" font-style="normal" text-decoration="none" family="微软雅黑" text-anchor="middle" size="13">Quality </text><text id="ProcessOnText1073" fill="#000000" font-size="13" x="35.321174377224196" y="29.575" font-family="微软雅黑" font-weight="normal" font-style="normal" text-decoration="none" family="微软雅黑" text-anchor="middle" size="13">testing</text></g></g><g id="ProcessOnG1074"><path id="ProcessOnPath1075" d="M558.175807003641 384.33802816901397L558.175807003641 394.2840375586853L558.175807003641 394.2840375586853L558.175807003641 395.2840375586853" stroke="#323232" stroke-width="2.0" stroke-dasharray="none" fill="none" marker-end="url(#ProcessOnMarker1076)"/></g><g id="ProcessOnG1078" transform="matrix(1.0,0.0,0.0,1.0,511.85463262641684,466.0610328638494)" opacity="1.0"><path id="ProcessOnPath1079" d="M0.0 0.0L92.64234875444839 0.0L92.64234875444839 37.183098591549296L0.0 37.183098591549296Z" stroke="#323232" stroke-width="2.0" stroke-dasharray="none" opacity="1.0" fill="#ffffff"/><g id="ProcessOnG1080" transform="matrix(1.0,0.0,0.0,1.0,10.0,2.341549295774648)"><text id="ProcessOnText1081" fill="#000000" font-size="13" x="35.321174377224196" y="13.325" font-family="微软雅黑" font-weight="normal" font-style="normal" text-decoration="none" family="微软雅黑" text-anchor="middle" size="13">Sewing/</text><text id="ProcessOnText1082" fill="#000000" font-size="13" x="35.321174377224196" y="29.575" font-family="微软雅黑" font-weight="normal" font-style="normal" text-decoration="none" family="微软雅黑" text-anchor="middle" size="13">Linking</text></g></g><g id="ProcessOnG1083"><path id="ProcessOnPath1084" d="M558.175807003641 446.57746478873224L558.175807003641 456.31924882629085L558.175807003641 456.31924882629085L558.175807003641 457.31924882629085" stroke="#323232" stroke-width="2.0" stroke-dasharray="none" fill="none" marker-end="url(#ProcessOnMarker1085)"/></g><g id="ProcessOnG1087"><path id="ProcessOnPath1088" d="M558.175807003641 503.24413145539984L558.175807003641 512.4859154929584L558.175807003641 512.4859154929584L558.175807003641 513.4859154929584" stroke="#323232" stroke-width="2.0" stroke-dasharray="none" fill="none" marker-end="url(#ProcessOnMarker1089)"/></g><g id="ProcessOnG1091" transform="matrix(1.0,0.0,0.0,1.0,664.9015421115067,187.12676056338034)" opacity="1.0"><path id="ProcessOnPath1092" d="M15.96085409252669 0.0L95.76512455516014 0.0C79.80427046263345 0.0 79.80427046263345 70.23474178403755 95.76512455516014 70.23474178403755L15.96085409252669 70.23474178403755C-5.633242620891773 70.23474178403755 -5.633242620891773 0.0 13.680732079308592 0.0Z" stroke="#323232" stroke-width="2.0" stroke-dasharray="none" opacity="1.0" fill="#ffffff"/><g id="ProcessOnG1093" transform="matrix(1.0,0.0,0.0,1.0,9.576512455516015,2.6173708920187764)"><text id="ProcessOnText1094" fill="#000000" font-size="13" x="34.911921708185055" y="13.325" font-family="微软雅黑" font-weight="normal" font-style="normal" text-decoration="none" family="微软雅黑" text-anchor="middle" size="13">Cotton</text><text id="ProcessOnText1095" fill="#000000" font-size="13" x="34.911921708185055" y="29.575" font-family="微软雅黑" font-weight="normal" font-style="normal" text-decoration="none" family="微软雅黑" text-anchor="middle" size="13">Spandex</text><text id="ProcessOnText1096" fill="#000000" font-size="13" x="34.911921708185055" y="45.825" font-family="微软雅黑" font-weight="normal" font-style="normal" text-decoration="none" family="微软雅黑" text-anchor="middle" size="13">Wool</text><text id="ProcessOnText1097" fill="#000000" font-size="13" x="34.911921708185055" y="62.075" font-family="微软雅黑" font-weight="normal" font-style="normal" text-decoration="none" family="微软雅黑" text-anchor="middle" size="13">...</text></g></g><g id="ProcessOnG1098" transform="matrix(1.0,0.0,0.0,1.0,244.99999999999983,629.718309859155)" opacity="1.0"><path id="ProcessOnPath1099" d="M17.17526690391459 0.0L103.05160142348754 0.0C85.87633451957295 0.0 85.87633451957295 83.66197183098592 103.05160142348754 83.66197183098592L17.17526690391459 83.66197183098592C-6.061858907263973 83.66197183098592 -6.061858907263973 0.0 14.721657346212506 0.0Z" stroke="#323232" stroke-width="2.0" stroke-dasharray="none" opacity="1.0" fill="#ffffff"/><g id="ProcessOnG1100" transform="matrix(1.0,0.0,0.0,1.0,10.305160142348754,9.33098591549296)"><text id="ProcessOnText1101" fill="#000000" font-size="13" x="37.644350533807824" y="13.325" font-family="微软雅黑" font-weight="normal" font-style="normal" text-decoration="none" family="微软雅黑" text-anchor="middle" size="13">Embroidery</text><text id="ProcessOnText1102" fill="#000000" font-size="13" x="37.644350533807824" y="29.575" font-family="微软雅黑" font-weight="normal" font-style="normal" text-decoration="none" family="微软雅黑" text-anchor="middle" size="13">Print</text><text id="ProcessOnText1103" fill="#000000" font-size="13" x="37.644350533807824" y="45.825" font-family="微软雅黑" font-weight="normal" font-style="normal" text-decoration="none" family="微软雅黑" text-anchor="middle" size="13">Add glue</text><text id="ProcessOnText1104" fill="#000000" font-size="13" x="37.644350533807824" y="62.075" font-family="微软雅黑" font-weight="normal" font-style="normal" text-decoration="none" family="微软雅黑" text-anchor="middle" size="13">....</text></g></g><g id="ProcessOnG1105"><path id="ProcessOnPath1106" d="M610.2220703488367 166.7511737089203L712.7841043890868 166.7511737089203L712.7841043890868 171.89069258588054" stroke="#323232" stroke-width="2.0" stroke-dasharray="none" fill="none" marker-end="url(#ProcessOnMarker1107)"/></g><g id="ProcessOnG1109"><path id="ProcessOnPath1110" d="M340.91063661526294 568.7230046948362L296.5258007117441 568.7230046948362L296.5258007117441 614.4822418816552" stroke="#323232" stroke-width="2.0" stroke-dasharray="none" fill="none" marker-end="url(#ProcessOnMarker1111)"/></g><g id="ProcessOnG1113"><path id="ProcessOnPath1114" d="M558.175807003641 615.7183098591554L558.175807003641 636.1455399061035L558.175807003641 636.1455399061035L558.175807003641 641.3367019755519" stroke="#323232" stroke-width="2.0" stroke-dasharray="none" fill="none" marker-end="url(#ProcessOnMarker1115)"/><g id="ProcessOnG1117" transform="matrix(1.0,0.0,0.0,1.0,558.175807003641,620.4025059173537)"><path id="ProcessOnPath1118" d="M0 0H19.0V16.25H0Z" fill="#fff" transform="matrix(1.0,0.0,0.0,1.0,-9.5,0.0)"/><text id="ProcessOnText1119" fill="#000000" font-size="13" x="0.0" y="13.325" font-family="微软雅黑" font-weight="normal" font-style="normal" text-decoration="none" family="微软雅黑" text-anchor="middle" size="13">No</text></g></g><g id="ProcessOnG1120" transform="matrix(1.0,0.0,0.0,1.0,506.1295436584453,656.5727699530518)" opacity="1.0"><path id="ProcessOnPath1121" d="M0.0 0.0L104.09252669039147 0.0L104.09252669039147 29.953051643192488L0.0 29.953051643192488Z" stroke="#323232" stroke-width="2.0" stroke-dasharray="none" opacity="1.0" fill="#ffffff"/><g id="ProcessOnG1122" transform="matrix(1.0,0.0,0.0,1.0,10.0,6.851525821596244)"><text id="ProcessOnText1123" fill="#000000" font-size="13" x="41.04626334519573" y="13.325" font-family="微软雅黑" font-weight="normal" font-style="normal" text-decoration="none" family="微软雅黑" text-anchor="middle" size="13">boarding</text></g></g><g id="ProcessOnG1124"><path id="ProcessOnPath1125" d="M387.2318109924871 589.1220657277L387.2318109924871 671.549295774648L490.8934756809455 671.549295774648" stroke="#323232" stroke-width="2.0" stroke-dasharray="none" fill="none" marker-end="url(#ProcessOnMarker1126)"/></g><g id="ProcessOnG1128" transform="matrix(1.0,0.0,0.0,1.0,502.48630522428164,97.3708920187793)" opacity="1.0"><path id="ProcessOnPath1129" d="M0.0 0.0L111.37900355871886 0.0L111.37900355871886 35.117370892018776L0.0 35.117370892018776Z" stroke="#323232" stroke-width="2.0" stroke-dasharray="none" opacity="1.0" fill="#ffffff"/><g id="ProcessOnG1130" transform="matrix(1.0,0.0,0.0,1.0,10.0,9.433685446009388)"><text id="ProcessOnText1131" fill="#000000" font-size="13" x="44.68950177935943" y="13.325" font-family="微软雅黑" font-weight="normal" font-style="normal" text-decoration="none" family="微软雅黑" text-anchor="middle" size="13">Socks Design</text></g></g><g id="ProcessOnG1132"><path id="ProcessOnPath1133" d="M558.175807003641 132.48826291079817L558.175807003641 141.09859154929586L558.175807003641 141.09859154929586L558.175807003641 142.09859154929586" stroke="#323232" stroke-width="2.0" stroke-dasharray="none" fill="none" marker-end="url(#ProcessOnMarker1134)"/></g><g id="ProcessOnG1136" transform="matrix(1.0,0.0,0.0,1.0,499.1032981068439,713.3802816901409)" opacity="1.0"><path id="ProcessOnPath1137" d="M0.0 34.60093896713615L59.07250889679715 0.0L118.1450177935943 34.60093896713615L59.07250889679715 69.2018779342723Z" stroke="#323232" stroke-width="2.0" stroke-dasharray="none" opacity="1.0" fill="#ffffff"/><g id="ProcessOnG1138" transform="matrix(1.0,0.0,0.0,1.0,10.0,18.69694835680751)"><text id="ProcessOnText1139" fill="#000000" font-size="13" x="48.07250889679715" y="13.325" font-family="微软雅黑" font-weight="normal" font-style="normal" text-decoration="none" family="微软雅黑" text-anchor="middle" size="13">inline </text><text id="ProcessOnText1140" fill="#000000" font-size="13" x="48.07250889679715" y="29.575" font-family="微软雅黑" font-weight="normal" font-style="normal" text-decoration="none" family="微软雅黑" text-anchor="middle" size="13">inspection</text></g></g><g id="ProcessOnG1141"><path id="ProcessOnPath1142" d="M558.175807003641 686.5258215962442L558.175807003641 699.9530516431926L558.1758070036412 699.9530516431926L558.1758070036412 700.9530516431926" stroke="#323232" stroke-width="2.0" stroke-dasharray="none" fill="none" marker-end="url(#ProcessOnMarker1143)"/></g><g id="ProcessOnG1145" transform="matrix(1.0,0.0,0.0,1.0,509.26477497517124,806.6666666666677)" opacity="1.0"><path id="ProcessOnPath1146" d="M0.0 4.0Q0.0 0.0 4.0 0.0L93.8220640569395 0.0Q97.8220640569395 0.0 97.8220640569395 4.0L97.8220640569395 26.33333333333337Q97.8220640569395 30.33333333333337 93.8220640569395 30.33333333333337L4.0 30.33333333333337Q0.0 30.33333333333337 0.0 26.33333333333337Z" stroke="#323232" stroke-width="2.0" stroke-dasharray="none" opacity="1.0" fill="#ffffff"/><g id="ProcessOnG1147" transform="matrix(1.0,0.0,0.0,1.0,10.0,7.041666666666686)"><text id="ProcessOnText1148" fill="#000000" font-size="13" x="37.91103202846975" y="13.325" font-family="微软雅黑" font-weight="normal" font-style="normal" text-decoration="none" family="微软雅黑" text-anchor="middle" size="13">Pairing</text></g></g><g id="ProcessOnG1149"><path id="ProcessOnPath1150" d="M558.1758070036412 782.5821596244132L558.1758070036412 794.6244131455404L558.175807003641 794.6244131455404L558.175807003641 795.6244131455404" stroke="#323232" stroke-width="2.0" stroke-dasharray="none" fill="none" marker-end="url(#ProcessOnMarker1151)"/></g><g id="ProcessOnG1153"><path id="ProcessOnPath1154" d="M558.175807003641 837.000000000001L558.175807003641 849.722222222224L558.1758070036408 849.722222222224L558.1758070036408 850.722222222224" stroke="#323232" stroke-width="2.0" stroke-dasharray="none" fill="none" marker-end="url(#ProcessOnMarker1155)"/></g><g id="ProcessOnG1157" transform="matrix(1.0,0.0,0.0,1.0,501.02485801194473,862.4444444444468)" opacity="1.0"><path id="ProcessOnPath1158" d="M0.0 0.0L114.30189798339256 0.0L114.30189798339256 27.333333333333258L0.0 27.333333333333258Z" stroke="#323232" stroke-width="2.0" stroke-dasharray="none" opacity="1.0" fill="#ffffff"/><g id="ProcessOnG1159" transform="matrix(1.0,0.0,0.0,1.0,10.0,5.541666666666629)"><text id="ProcessOnText1160" fill="#000000" font-size="13" x="46.15094899169628" y="13.325" font-family="微软雅黑" font-weight="normal" font-style="normal" text-decoration="none" family="微软雅黑" text-anchor="middle" size="13">Clipping</text></g></g><g id="ProcessOnG1161"><path id="ProcessOnPath1162" d="M558.1758070036408 889.7777777777801L558.1758070036408 901.7777777777794L558.175807003641 901.7777777777794L558.175807003641 902.7777777777794" stroke="#323232" stroke-width="2.0" stroke-dasharray="none" fill="none" marker-end="url(#ProcessOnMarker1163)"/></g><g id="ProcessOnG1165" transform="matrix(1.0,0.0,0.0,1.0,505.7921573397423,913.7777777777789)" opacity="1.0"><path id="ProcessOnPath1166" d="M0.0 0.0L104.76729932779745 0.0L104.76729932779745 32.0L0.0 32.0Z" stroke="#323232" stroke-width="2.0" stroke-dasharray="none" opacity="1.0" fill="#ffffff"/><g id="ProcessOnG1167" transform="matrix(1.0,0.0,0.0,1.0,10.0,7.875)"><text id="ProcessOnText1168" fill="#000000" font-size="13" x="41.38364966389872" y="13.325" font-family="微软雅黑" font-weight="normal" font-style="normal" text-decoration="none" family="微软雅黑" text-anchor="middle" size="13">Packing</text></g></g><g id="ProcessOnG1169"><path id="ProcessOnPath1170" d="M610.5594566675397 929.7777777777787L696.2508442194004 929.7777777777787L696.2508442194004 941.0972653558341" stroke="#323232" stroke-width="2.0" stroke-dasharray="none" fill="none" marker-end="url(#ProcessOnMarker1171)"/></g><g id="ProcessOnG1173" transform="matrix(1.0,0.0,0.0,1.0,637.2508442194005,956.3333333333339)" opacity="1.0"><path id="ProcessOnPath1174" d="M0.0 65.625L0.0 0.0L118.0 0.0L118.0 65.625Q88.5 46.875 59.0 65.625Q29.5 84.375 0.0 65.625Z" stroke="#323232" stroke-width="2.0" stroke-dasharray="none" opacity="1.0" fill="#ffffff"/><g id="ProcessOnG1175" transform="matrix(1.0,0.0,0.0,1.0,0.0,17.5)"><text id="ProcessOnText1176" fill="#000000" font-size="13" x="58.0" y="13.325" font-family="微软雅黑" font-weight="normal" font-style="normal" text-decoration="none" family="微软雅黑" text-anchor="middle" size="13">Band,tag,packing</text><text id="ProcessOnText1177" fill="#000000" font-size="13" x="58.0" y="29.575" font-family="微软雅黑" font-weight="normal" font-style="normal" text-decoration="none" family="微软雅黑" text-anchor="middle" size="13">Private label</text></g></g><g id="ProcessOnG1178"><path id="ProcessOnPath1179" d="M558.175807003641 945.7777777777785L558.175807003641 958.7222222222227L558.175807003641 958.7222222222227L558.175807003641 959.7222222222227" stroke="#323232" stroke-width="2.0" stroke-dasharray="none" fill="none" marker-end="url(#ProcessOnMarker1180)"/></g><g id="ProcessOnG1182" transform="matrix(1.0,0.0,0.0,1.0,498.175807003641,971.666666666667)" opacity="1.0"><path id="ProcessOnPath1183" d="M0.0 40.0L60.0 0.0L120.0 40.0L60.0 80.0Z" stroke="#323232" stroke-width="2.0" stroke-dasharray="none" opacity="1.0" fill="#ffffff"/><g id="ProcessOnG1184" transform="matrix(1.0,0.0,0.0,1.0,10.0,32.275)"><text id="ProcessOnText1185" fill="#000000" font-size="13" x="49.0" y="13.325" font-family="微软雅黑" font-weight="normal" font-style="normal" text-decoration="none" family="微软雅黑" text-anchor="middle" size="13">Final Inspection</text></g></g><g id="ProcessOnG1186"><path id="ProcessOnPath1187" d="M558.175807003641 1051.6666666666654L558.175807003641 1066.3333333333314L558.175807003641 1066.3333333333314L558.175807003641 1067.3333333333314" stroke="#323232" stroke-width="2.0" stroke-dasharray="none" fill="none" marker-end="url(#ProcessOnMarker1188)"/></g><g id="ProcessOnG1190" transform="matrix(1.0,0.0,0.0,1.0,494.6478208067622,1080.9999999999975)" opacity="1.0"><path id="ProcessOnPath1191" d="M10.555555555555808 0.0L116.50041683820196 0.0C130.57449091227636 0.0 130.57449091227636 31.666666666667425 116.50041683820196 31.666666666667425L10.555555555555808 31.666666666667425C-3.5185185185186025 31.666666666667425 -3.5185185185186025 0.0 10.555555555555808 0.0Z" stroke="#323232" stroke-width="2.0" stroke-dasharray="none" opacity="1.0" fill="#ffffff"/><g id="ProcessOnG1192" transform="matrix(1.0,0.0,0.0,1.0,10.0,7.708333333333712)"><text id="ProcessOnText1193" fill="#000000" font-size="13" x="52.527986196878885" y="13.325" font-family="微软雅黑" font-weight="normal" font-style="normal" text-decoration="none" family="微软雅黑" text-anchor="middle" size="13">Shipping Goods</text></g></g><g id="ProcessOnG1194" transform="matrix(1.0,0.0,0.0,1.0,398.0,94.92957746478871)" opacity="1.0"><path id="ProcessOnPath1195" d="M0.0 0.0L160.0 0.0L160.0 40.0L0.0 40.0Z" stroke="none" stroke-width="0.0" stroke-dasharray="none" opacity="1.0" fill="none"/><g id="ProcessOnG1196" transform="matrix(1.0,0.0,0.0,1.0,0.0,7.5)"><text id="ProcessOnText1197" fill="#3333ff" font-size="20" x="79.0" y="20.5" font-family="微软雅黑" font-weight="bold" font-style="normal" text-decoration="none" family="微软雅黑" text-anchor="middle" size="20">A</text></g></g><g id="ProcessOnG1198" transform="matrix(1.0,0.0,0.0,1.0,412.0,319.92957746478874)" opacity="1.0"><path id="ProcessOnPath1199" d="M0.0 0.0L160.0 0.0L160.0 40.0L0.0 40.0Z" stroke="none" stroke-width="0.0" stroke-dasharray="none" opacity="1.0" fill="none"/><g id="ProcessOnG1200" transform="matrix(1.0,0.0,0.0,1.0,0.0,7.5)"><text id="ProcessOnText1201" fill="#3333ff" font-size="20" x="79.0" y="20.5" font-family="微软雅黑" font-weight="bold" font-style="normal" text-decoration="none" family="微软雅黑" text-anchor="middle" size="20">B</text></g></g><g id="ProcessOnG1202" transform="matrix(1.0,0.0,0.0,1.0,412.0,525.9295774647887)" opacity="1.0"><path id="ProcessOnPath1203" d="M0.0 0.0L160.0 0.0L160.0 40.0L0.0 40.0Z" stroke="none" stroke-width="0.0" stroke-dasharray="none" opacity="1.0" fill="none"/><g id="ProcessOnG1204" transform="matrix(1.0,0.0,0.0,1.0,0.0,7.5)"><text id="ProcessOnText1205" fill="#3333ff" font-size="20" x="79.0" y="20.5" font-family="微软雅黑" font-weight="bold" font-style="normal" text-decoration="none" family="微软雅黑" text-anchor="middle" size="20">C</text></g></g><g id="ProcessOnG1206" transform="matrix(1.0,0.0,0.0,1.0,407.0,629.718309859155)" opacity="1.0"><path id="ProcessOnPath1207" d="M0.0 0.0L160.0 0.0L160.0 40.0L0.0 40.0Z" stroke="none" stroke-width="0.0" stroke-dasharray="none" opacity="1.0" fill="none"/><g id="ProcessOnG1208" transform="matrix(1.0,0.0,0.0,1.0,0.0,7.5)"><text id="ProcessOnText1209" fill="#3333ff" font-size="20" x="79.0" y="20.5" font-family="微软雅黑" font-weight="bold" font-style="normal" text-decoration="none" family="微软雅黑" text-anchor="middle" size="20">D</text></g></g><g id="ProcessOnG1210" transform="matrix(1.0,0.0,0.0,1.0,407.0,909.7777777777789)" opacity="1.0"><path id="ProcessOnPath1211" d="M0.0 0.0L160.0 0.0L160.0 40.0L0.0 40.0Z" stroke="none" stroke-width="0.0" stroke-dasharray="none" opacity="1.0" fill="none"/><g id="ProcessOnG1212" transform="matrix(1.0,0.0,0.0,1.0,0.0,7.5)"><text id="ProcessOnText1213" fill="#3333ff" font-size="20" x="79.0" y="20.5" font-family="微软雅黑" font-weight="bold" font-style="normal" text-decoration="none" family="微软雅黑" text-anchor="middle" size="20">E</text></g></g></g></g></svg>